<?xml version="1.0" standalone="no"?>
<!DOCTYPE svg PUBLIC "-//W3C//DTD SVG 20010904//EN"
 "http://www.w3.org/TR/2001/REC-SVG-20010904/DTD/svg10.dtd">
<svg version="1.0" xmlns="http://www.w3.org/2000/svg"
 width="867.000000pt" height="171.000000pt" viewBox="0 0 867.000000 171.000000"
 preserveAspectRatio="xMidYMid meet">

<g transform="translate(0.000000,171.000000) scale(0.100000,-0.100000)"
fill="#000000" stroke="none">
<path d="M5480 1495 c-69 -20 -148 -65 -181 -104 -17 -20 -38 -45 -48 -56 -10
-11 -21 -27 -24 -35 -4 -8 -18 -33 -32 -55 -13 -22 -24 -49 -25 -60 0 -11 -9
-43 -19 -71 -19 -50 -24 -100 -23 -229 1 -134 3 -181 11 -200 5 -11 16 -47 26
-80 10 -33 26 -76 36 -95 11 -19 19 -42 19 -50 0 -8 14 -31 31 -50 16 -19 40
-47 53 -62 13 -15 37 -33 52 -40 16 -7 44 -23 62 -37 50 -37 160 -41 259 -11
62 20 83 33 134 82 33 33 64 69 70 81 13 29 29 56 57 94 12 17 22 37 22 45 0
7 10 38 21 68 15 38 23 82 24 142 2 47 5 90 7 95 3 4 4 28 2 53 -8 141 -15
193 -31 222 -10 18 -18 38 -19 43 -2 21 -37 91 -60 122 -13 17 -24 34 -24 38
0 8 -86 95 -94 95 -4 0 -19 9 -34 19 -27 20 -161 52 -204 50 -13 -1 -43 -7
-68 -14z m160 -75 c13 -11 28 -20 35 -20 15 0 101 -94 120 -132 8 -17 17 -45
21 -64 3 -18 12 -38 20 -45 8 -6 11 -15 8 -21 -3 -5 -1 -15 6 -23 6 -7 11 -30
11 -52 -1 -55 3 -86 12 -101 5 -7 4 -19 -2 -26 -8 -9 -8 -22 0 -45 7 -19 8
-48 4 -69 -4 -20 -7 -52 -6 -70 0 -18 -6 -43 -14 -55 -8 -12 -16 -38 -19 -57
-13 -103 -21 -127 -47 -158 -16 -18 -29 -39 -29 -47 0 -8 -16 -26 -36 -41 -20
-16 -40 -38 -45 -51 -7 -19 -16 -23 -49 -23 -22 0 -49 -6 -60 -13 -15 -8 -23
-9 -28 -1 -4 6 -24 14 -45 18 -37 7 -97 54 -97 76 0 6 -7 10 -15 10 -8 0 -18
15 -24 35 -5 19 -18 47 -28 62 -22 32 -53 124 -53 159 0 12 -4 25 -9 29 -6 3
-7 60 -4 138 4 72 6 149 5 169 -1 20 3 40 8 43 5 3 7 12 4 19 -3 8 -1 17 5 21
6 3 11 19 11 35 0 16 5 32 10 35 6 4 10 14 9 23 -4 30 12 70 37 93 13 12 24
29 24 36 0 8 7 16 15 19 8 4 15 13 15 21 0 15 38 52 53 53 5 0 24 7 43 16 19
9 45 14 59 11 14 -2 28 0 31 4 8 14 19 11 44 -11z"/>
<path d="M2780 1483 c-104 -7 -110 -10 -110 -53 l0 -39 54 6 c52 5 55 4 60
-18 9 -42 14 -118 8 -124 -3 -3 -5 -65 -5 -138 4 -502 3 -639 -4 -650 -4 -7
-6 -21 -4 -31 1 -10 -2 -28 -7 -40 -6 -12 -13 -29 -16 -38 -3 -10 -15 -18 -26
-18 -50 0 -76 -34 -45 -60 17 -14 273 -16 288 -1 5 5 7 19 5 32 -2 20 -9 24
-46 27 -24 2 -45 9 -47 15 -12 33 -25 203 -23 287 5 202 7 338 7 423 -1 72 2
87 15 87 16 0 60 -53 61 -73 0 -7 9 -30 19 -52 10 -22 24 -51 30 -65 6 -14 17
-36 25 -48 8 -13 16 -36 17 -50 2 -15 8 -38 15 -52 36 -78 45 -98 63 -122 30
-43 79 -33 79 16 0 14 3 26 8 26 5 0 9 8 9 18 0 10 9 25 20 35 11 9 20 25 20
36 0 10 7 24 15 31 9 7 14 18 11 25 -2 6 9 38 26 71 16 32 30 71 30 87 -1 15
3 27 7 27 5 0 18 27 30 60 12 32 25 61 29 64 4 2 17 -4 29 -13 18 -15 20 -23
13 -62 -5 -24 -6 -65 -3 -91 4 -34 2 -48 -6 -48 -8 0 -10 -8 -6 -20 4 -12 6
-71 5 -133 -1 -62 -1 -125 -1 -142 0 -16 -1 -64 -2 -105 0 -41 0 -100 1 -130
4 -85 -3 -100 -41 -100 -44 0 -70 -20 -65 -51 l3 -24 168 -3 c100 -1 167 1
167 7 0 5 3 16 6 24 9 24 -24 47 -66 47 -34 0 -39 3 -43 27 -4 24 -3 810 2
971 1 51 2 52 30 52 57 0 81 16 81 54 l0 34 -99 7 c-106 7 -141 2 -141 -21 0
-8 -4 -14 -10 -14 -8 0 -24 -30 -46 -85 -10 -26 -9 -23 -18 -75 -5 -25 -14
-56 -21 -70 -7 -14 -21 -43 -30 -65 -9 -22 -26 -58 -36 -81 -10 -22 -19 -50
-19 -61 0 -11 -7 -26 -15 -33 -8 -7 -15 -28 -15 -46 0 -28 -5 -36 -26 -44 -34
-13 -47 -3 -68 58 -10 26 -26 64 -37 85 -10 22 -19 45 -19 53 0 8 -4 14 -9 14
-6 0 -9 8 -8 18 1 15 -14 57 -67 192 -3 8 -10 22 -14 30 -25 43 -32 62 -32 83
0 46 -57 67 -160 60z"/>
<path d="M1585 1472 c-38 -5 -55 -19 -55 -47 0 -32 18 -42 75 -40 97 2 97 1
104 -297 3 -162 0 -278 -7 -299 -5 -13 -5 -41 0 -64 10 -44 11 -275 2 -342 -6
-39 -9 -43 -40 -49 -19 -3 -44 -4 -57 0 -37 9 -62 -18 -58 -62 1 -10 78 -12
359 -12 196 -1 385 -2 419 -4 34 -1 68 1 75 5 10 6 12 48 11 181 -3 183 -5
191 -53 186 -25 -3 -25 -4 -30 -126 -5 -117 -7 -125 -30 -143 -16 -12 -41 -19
-70 -19 -25 0 -88 -2 -140 -5 -169 -10 -239 -10 -250 1 -14 14 -19 155 -7 171
8 11 9 159 2 248 -1 22 -1 54 2 72 l5 31 105 1 c100 1 107 0 131 -24 22 -22
24 -31 19 -79 -6 -63 4 -80 39 -64 33 15 35 34 35 342 0 31 -6 55 -17 67 -15
17 -18 17 -41 2 -22 -14 -24 -22 -22 -67 2 -28 -2 -61 -9 -73 -12 -22 -19 -23
-132 -23 l-118 0 2 210 c1 138 5 213 13 221 28 28 367 31 411 3 29 -19 45 -59
33 -82 -5 -9 -11 -44 -15 -78 -5 -52 -3 -64 13 -78 11 -10 31 -16 47 -14 25 3
28 7 30 38 0 19 3 98 5 174 l4 140 -380 0 c-209 1 -393 -1 -410 -2z"/>
<path d="M326 1450 c-2 -8 -3 -26 -2 -40 3 -24 6 -25 76 -27 87 -2 99 -6 100
-30 0 -10 0 -237 0 -506 0 -323 -3 -494 -10 -507 -8 -14 -21 -20 -48 -20 -103
0 -131 -19 -97 -64 12 -16 28 -18 142 -17 142 2 287 8 318 14 107 21 255 97
255 131 0 7 13 22 30 34 17 13 30 30 30 39 0 8 9 31 21 49 11 19 31 79 43 135
20 86 23 126 21 263 -2 176 -18 256 -67 351 -26 49 -106 135 -127 135 -5 0
-14 6 -18 13 -10 15 -93 43 -153 52 -25 3 -150 7 -278 8 -201 2 -233 1 -236
-13z m498 -84 c91 -29 122 -52 158 -114 37 -63 42 -75 68 -157 25 -82 34 -213
19 -305 -6 -36 -13 -94 -15 -129 -3 -41 -12 -74 -24 -91 -10 -14 -22 -39 -26
-56 -12 -52 -32 -80 -86 -122 -69 -53 -126 -72 -219 -72 l-76 0 -5 38 c-2 20
-2 71 2 112 4 46 3 80 -4 88 -7 9 -6 19 1 30 6 11 9 98 7 242 -2 124 -2 234
-1 245 1 11 2 83 2 160 0 83 4 143 10 147 21 15 115 7 189 -16z"/>
<path d="M6740 1073 c-49 -4 -139 -22 -174 -35 -40 -16 -123 -98 -131 -130 -7
-27 -2 -128 7 -144 3 -5 8 -21 12 -36 4 -19 13 -28 26 -28 11 0 20 -6 20 -14
0 -8 22 -21 49 -30 54 -17 278 -56 327 -56 16 0 39 -7 50 -15 10 -8 26 -15 34
-15 9 0 23 -8 32 -19 8 -10 21 -20 28 -23 7 -2 13 -24 13 -55 1 -43 -3 -56
-24 -75 -29 -26 -63 -44 -99 -52 -14 -2 -45 -10 -69 -16 -31 -8 -60 -8 -105 0
-76 14 -166 42 -166 52 0 4 -13 14 -29 23 -16 8 -32 25 -36 37 -26 98 -37 114
-69 102 -20 -8 -27 -86 -15 -166 6 -38 12 -84 12 -101 2 -29 5 -32 32 -29 17
2 35 10 41 18 15 19 46 18 124 -4 97 -28 224 -28 322 0 132 37 208 121 208
228 0 26 -6 61 -12 77 -32 75 -120 136 -213 147 -27 4 -72 11 -100 16 -27 6
-84 15 -125 20 -98 13 -135 32 -154 81 -24 61 -6 89 94 142 47 25 171 25 252
0 46 -14 67 -27 90 -56 17 -21 28 -41 25 -44 -4 -3 3 -23 14 -44 16 -32 25
-39 49 -39 22 0 30 5 31 18 7 106 6 209 -1 228 -11 27 -38 31 -88 13 -22 -7
-42 -7 -74 2 -50 14 -158 25 -208 22z"/>
<path d="M7840 1073 c-29 -3 -49 -11 -58 -24 -7 -10 -19 -19 -25 -19 -15 -1
-67 -46 -67 -58 0 -5 -9 -12 -20 -15 -11 -3 -20 -13 -20 -24 0 -10 -9 -24 -20
-31 -12 -7 -20 -23 -20 -40 0 -15 -5 -33 -12 -40 -14 -14 -37 -193 -32 -243 4
-41 23 -109 35 -129 5 -8 18 -32 28 -53 24 -49 108 -111 187 -137 51 -17 80
-21 142 -17 87 6 182 28 248 57 24 11 63 29 87 39 51 24 68 47 55 80 -11 30
-40 25 -151 -28 -98 -46 -121 -52 -218 -52 -91 -1 -151 20 -199 70 -49 51 -60
76 -66 151 -3 36 -8 69 -11 73 -3 4 0 14 7 22 8 9 8 15 0 20 -23 14 31 205 58
205 4 0 13 13 19 30 6 16 20 33 30 36 10 4 28 16 41 28 20 18 34 20 104 18 66
-3 87 -7 119 -29 21 -14 39 -32 39 -39 0 -8 9 -23 20 -34 30 -30 120 -26 120
5 0 7 4 15 10 17 5 2 3 14 -5 28 -8 14 -17 32 -20 40 -6 16 -15 21 -85 55 -84
41 -170 51 -320 38z"/>
<path d="M4696 743 c-1 -1 -164 -4 -361 -5 l-359 -3 -8 -41 c-14 -86 -52 -79
403 -80 314 -1 409 2 425 12 17 10 22 23 22 62 l2 50 -61 4 c-33 1 -62 2 -63
1z"/>
</g>
</svg>
